<?xml version="1.0" encoding="UTF-8"?>
<svg width="41px" height="25px" viewBox="0 0 41 25" version="1.1" xmlns="http://www.w3.org/2000/svg" xmlns:xlink="http://www.w3.org/1999/xlink">
    <!-- Generator: Sketch 41 (35326) - http://www.bohemiancoding.com/sketch -->
    <title>Group 7</title>
    <desc>Created with Sketch.</desc>
    <defs>
        <polygon id="path-1" points="0.0642945622 24.906367 3.53473783 24.906367 3.53473783 0.057106362 0.0642945622 0.057106362 0.0642945622 24.906367"></polygon>
    </defs>
    <g id="Page-1" stroke="none" stroke-width="1" fill="none" fill-rule="evenodd">
        <g id="Desktop-HD-Copy-2" transform="translate(-993.000000, -516.000000)">
            <g id="Group-8" transform="translate(946.000000, 516.000000)">
                <g id="Group-7" transform="translate(47.000000, 0.000000)">
                    <g id="Group-3" transform="translate(36.666667, 0.000000)">
                        <mask id="mask-2" fill="white">
                            <use xlink:href="#path-1"></use>
                        </mask>
                        <g id="Clip-2"></g>
                        <path d="M1.0560206,23.7514045 C1.05087079,24.3852996 1.55929775,24.9011236 2.19169476,24.906367 C2.82512172,24.9116105 3.34113296,24.4039326 3.34647004,23.7709738 L3.53467228,1.29681648 C3.54375468,0.185580524 2.8213764,0.0610486891 2.31575843,0.0571161049 C1.80808052,0.0528089888 0.869691011,1.47734082 0.656769663,2.79166667 C0.441975655,4.10477528 -0.828061798,10.8771536 1.18485955,12.2103933 L1.0560206,23.7514045 Z" id="Fill-1" fill="#AB83A4" mask="url(#mask-2)"></path>
                    </g>
                    <path d="M1.21516854,23.7538858 L1.36882022,9.27748127 C0.54494382,9.2707397 0.139700375,8.28946629 0,7.57944757 L0.498689139,0.0936797753 L1.17340824,6.13609551 L1.80561798,0.104073034 L2.47949438,6.14705056 L3.25617978,0.116245318 L3.78595506,6.15800562 L4.56151685,0.127200375 L4.93370787,7.6207397 C4.7840824,8.32823034 4.42059925,9.30276217 3.59475655,9.2960206 L3.50702247,23.7727996 C3.50177903,24.4062266 2.98342697,24.9139045 2.35121723,24.9083801 C1.71882022,24.9031367 1.21020599,24.3873127 1.21516854,23.7538858" id="Fill-4" fill="#AB83A4"></path>
                    <g id="Group-6" transform="translate(8.333333, 0.000000)" fill="#AB83A4">
                        <circle id="Oval" cx="12.5" cy="12.5" r="12.5"></circle>
                        <circle id="Oval" stroke-opacity="0.87" stroke="#FFFFFF" cx="12.5" cy="12.5" r="10"></circle>
                    </g>
                </g>
            </g>
        </g>
    </g>
</svg>