<?xml version="1.0" encoding="UTF-8"?>
<svg width="29px" height="30px" viewBox="0 0 29 30" version="1.1" xmlns="http://www.w3.org/2000/svg" xmlns:xlink="http://www.w3.org/1999/xlink">
    <!-- Generator: Sketch 41 (35326) - http://www.bohemiancoding.com/sketch -->
    <title>Page 1</title>
    <desc>Created with Sketch.</desc>
    <defs>
        <polygon id="path-1" points="0.0625416667 30 28.395875 30 28.395875 4.16666667e-05 0.0625416667 4.16666667e-05"></polygon>
    </defs>
    <g id="Page-1" stroke="none" stroke-width="1" fill="none" fill-rule="evenodd">
        <g id="Desktop-HD-Copy-2" transform="translate(-823.000000, -512.000000)">
            <g id="Group-5" transform="translate(769.000000, 512.000000)">
                <g id="Page-1" transform="translate(54.000000, 0.000000)">
                    <mask id="mask-2" fill="white">
                        <use xlink:href="#path-1"></use>
                    </mask>
                    <g id="Clip-2"></g>
                    <path d="M25.4735833,4.2711875 L25.4735833,19.3147292 C24.8005625,19.0755625 24.0465,18.9413958 23.2501458,18.9413958 C20.4081667,18.9413958 18.1043125,20.6486875 18.1043125,22.7547292 C18.1043125,24.8607708 20.4081667,26.5679583 23.2501458,26.5679583 C25.918375,26.5679583 28.1122292,25.0630625 28.3704583,23.1359792 L28.395875,23.1359792 L28.395875,2.73389583 L28.395875,4.16666667e-05 L7.43170833,4.19660417 L7.43170833,6.54816667 L7.43170833,22.7468125 C6.7586875,22.5074375 6.004625,22.3734792 5.20827083,22.3734792 C2.36629167,22.3734792 0.0625416667,24.0805625 0.0625416667,26.1867083 C0.0625416667,28.29275 2.36629167,30.0000417 5.20827083,30.0000417 C7.8765,30.0000417 10.0703542,28.4950417 10.3285833,26.5679583 L10.354,26.5679583 L10.354,7.29785417 L25.4735833,4.2711875 Z" id="Fill-1" fill="#AB83A4" mask="url(#mask-2)"></path>
                </g>
            </g>
        </g>
    </g>
</svg>