<?xml version="1.0" encoding="UTF-8"?>
<svg width="28px" height="32px" viewBox="0 0 28 32" version="1.1" xmlns="http://www.w3.org/2000/svg" xmlns:xlink="http://www.w3.org/1999/xlink">
    <!-- Generator: Sketch 41 (35326) - http://www.bohemiancoding.com/sketch -->
    <title>Page 1</title>
    <desc>Created with Sketch.</desc>
    <defs>
        <polygon id="path-1" points="13.9794851 32 27.9586667 32 27.9586667 0 13.9794851 0 0.00030357982 0 0.00030357982 32 13.9794851 32"></polygon>
    </defs>
    <g id="Page-1" stroke="none" stroke-width="1" fill="none" fill-rule="evenodd">
        <g id="Desktop-HD-Copy-2" transform="translate(-665.000000, -437.000000)">
            <g id="Group-9" transform="translate(567.000000, 437.000000)">
                <g id="Page-1" transform="translate(98.000000, 0.000000)">
                    <mask id="mask-2" fill="white">
                        <use xlink:href="#path-1"></use>
                    </mask>
                    <g id="Clip-2"></g>
                    <path d="M2.5742,0 C2.28486667,0 1.9942,0.05 1.71286667,0.152666667 C0.7802,0.493333333 0.1362,1.352 0.0695333333,2.34333333 C0.0608666667,2.478 0.0555333333,2.692 0.0762,2.95533333 C0.0155333333,3.218 -0.00913333333,3.494 0.00353333333,3.772 C0.0142,4.028 0.0575333333,4.28666667 0.130866667,4.54466667 C0.0408666667,5.08133333 0.100866667,5.63733333 0.308866667,6.20133333 C0.400866667,6.45333333 0.524866667,6.70666667 0.679533333,6.96533333 C0.663533333,7.12066667 0.6582,7.276 0.665533333,7.432 C0.686866667,7.93333333 0.8202,8.41933333 1.06486667,8.88533333 C1.02353333,9.548 1.19353333,10.2533333 1.55753333,10.8706667 C1.94553333,11.5286667 2.5242,12.0826667 3.3082,12.5426667 C3.3642,12.7033333 3.43353333,12.8753333 3.51886667,13.054 C3.5362,13.2306667 3.57353333,13.4066667 3.6302,13.582 C3.6782,13.732 3.8662,14.264 4.22953333,14.8226667 C4.33353333,14.9813333 4.44286667,15.1293333 4.55886667,15.2686667 C4.57353333,15.4373333 4.60553333,15.6053333 4.65486667,15.7693333 C4.82353333,16.3306667 5.14953333,16.936 5.64353333,17.4093333 C5.70886667,17.5246667 5.78286667,17.6426667 5.86686667,17.7613333 C6.23686667,18.284 6.71753333,18.694 7.26753333,18.9713333 C7.4182,19.1913333 7.59353333,19.4046667 7.79686667,19.602 C7.87953333,19.74 7.97686667,19.892 8.0902,20.048 C8.3542,20.4133333 8.64086667,20.7266667 8.94953333,20.9853333 C8.95153333,20.992 8.95486667,20.9986667 8.95753333,21.0066667 C5.6782,24.1833333 3.6382,27.6246667 3.5362,27.7966667 C3.1502,28.454 3.0842,29.2493333 3.35553333,29.9613333 C3.6842,30.824 4.37353333,31.4713333 5.2982,31.7846667 C5.7222,31.928 6.2022,32 6.7262,32 C7.10086667,32 7.44553333,31.9626667 7.68486667,31.9286667 C7.70286667,31.9293333 7.72153333,31.9293333 7.73953333,31.9293333 C8.2542,31.9293333 8.8382,31.8946667 9.39086667,31.7166667 C9.94953333,31.6213333 10.5235333,31.388 11.1295333,31.0133333 C11.1948667,30.9726667 11.2568667,30.9326667 11.3162,30.8933333 C11.7302,30.7853333 12.1575333,30.602 12.6062,30.3446667 C12.6368667,30.326 12.6662,30.3093333 12.6955333,30.292 C13.4988667,30.1033333 14.1462,29.636 14.5028667,29.3313333 C15.0242,28.8846667 15.3362,28.2473333 15.3742,27.57 C15.4288667,27.4673333 15.6448667,27.15 16.3562,26.78 C16.6822,26.61 17.1188667,26.472 17.5815333,26.3253333 C18.2508667,26.1126667 19.0082,25.8726667 19.7768667,25.4453333 C20.8375333,24.856 21.7795333,24.0286667 22.5022,23.052 C22.8695333,22.554 23.1502,22.0546667 23.3975333,21.6153333 C23.6062,21.244 23.8028667,20.8953333 24.0008667,20.642 C24.2695333,20.2973333 24.6702,19.8853333 24.9868667,19.6106667 C25.1148667,19.6306667 25.2442,19.6406667 25.3735333,19.6406667 C25.4348667,19.6406667 25.4955333,19.6386667 25.5562,19.634 C26.3295333,19.578 27.0328667,19.168 27.4628667,18.5233333 C27.9175333,17.842 28.0655333,17.016 27.8822,16.1986667 C27.7862,15.7733333 27.6022,15.3573333 27.3335333,14.9606667 C27.2402,14.8226667 27.1435333,14.698 27.0508667,14.5873333 C26.4235333,13.3066667 25.2035333,12.5386667 23.7295333,12.5386667 C22.8048667,12.5386667 21.9482,12.846 21.3628667,13.124 C21.2608667,12.4666667 21.0348667,11.3033333 20.5308667,9.09533333 C20.1055333,7.23533333 19.6742,5.47666667 19.6708667,5.45866667 C19.4442,4.53666667 18.7162,3.82 17.7888667,3.60933333 C17.6455333,3.57666667 17.4162,3.538 17.1355333,3.538 C16.7602,3.538 16.3942,3.60666667 16.0555333,3.73733333 C15.4162,3.74066667 14.8062,3.966 14.3088667,4.37666667 C13.7108667,4.48066667 13.1655333,4.76 12.7362,5.188 C12.3888667,5.53666667 12.1368667,5.95533333 11.9882,6.416 C11.9428667,6.45866667 11.8962,6.50133333 11.8522,6.546 C11.5682,6.82933333 11.3475333,7.15933333 11.1955333,7.52133333 C10.7468667,7.03666667 10.2462,6.49066667 9.73553333,5.93 C6.99486667,2.91266667 6.3102,1.988 6.1522,1.75266667 C5.74886667,0.866666667 4.8602,0.284666667 3.86886667,0.284666667 C3.8262,0.284666667 3.78286667,0.286 3.74086667,0.288 C3.38086667,0.0986666667 2.97953333,0 2.5742,0 M23.5588667,15.9626667 C23.7062,15.9626667 23.8275333,15.8426667 23.8275333,15.694 C23.8275333,15.546 23.7062,15.426 23.5588667,15.426 C23.4108667,15.426 23.2895333,15.546 23.2895333,15.694 C23.2895333,15.8426667 23.4108667,15.9626667 23.5588667,15.9626667 M2.57486667,2.51066667 L4.31086667,4.31066667 C3.58486667,2.794 3.86886667,2.794 3.86886667,2.794 C4.18486667,3.77333333 11.1008667,11.0993333 11.1008667,11.0993333 C11.1008667,11.0993333 13.8982,14.1293333 13.9922,14.1293333 C13.9975333,14.1293333 13.9935333,14.1193333 13.9788667,14.0973333 C12.2468667,11.4066667 12.8875333,11.2206667 13.0968667,11.2206667 C13.1308667,11.2206667 13.1528667,11.226 13.1528667,11.226 C13.1528667,11.226 12.7115333,10.1526667 12.9322,9.74133333 C13.0575333,9.51 13.2622,9.45866667 13.4182,9.45866667 C13.5368667,9.45866667 13.6275333,9.48866667 13.6275333,9.48866667 C13.6275333,9.48866667 13.2315333,8.71533333 13.6275333,8.32066667 C13.8375333,8.11066667 14.0742,8.062 14.2495333,8.062 C14.4035333,8.062 14.5108667,8.09933333 14.5108667,8.09933333 C14.5108667,8.09933333 14.1322,7.342 14.5108667,6.96266667 C14.5988667,6.87533333 14.7135333,6.842 14.8375333,6.842 C15.2515333,6.842 15.7748667,7.21533333 15.7748667,7.21533333 C15.7748667,7.21533333 15.4948667,6.72133333 15.8782,6.33866667 C15.9428667,6.274 16.0062,6.24733333 16.0695333,6.24733333 C16.3855333,6.24733333 16.6648667,6.90933333 16.6648667,6.90933333 C16.5675333,6.13933333 16.9488667,6.04733333 17.1355333,6.04733333 C17.1935333,6.04733333 17.2322,6.05666667 17.2322,6.05666667 C17.2322,6.05666667 18.9348667,12.998 18.9348667,14.0093333 C18.9348667,15.0193333 18.6855333,17.1253333 18.6855333,17.1253333 C19.5068667,16.6753333 21.6155333,15.7853333 22.0275333,15.616 C22.0275333,15.616 22.9208667,15.0473333 23.7295333,15.0473333 C24.2282,15.0473333 24.6962,15.264 24.9002,15.9626667 C24.9002,15.9626667 25.6902,16.6573333 25.3742,17.1306667 C25.2342,16.9766667 25.0622,16.9093333 24.8702,16.9093333 C23.8908667,16.9093333 22.3882,18.6293333 22.0235333,19.0966667 C21.4215333,19.8653333 21.0615333,20.778 20.4835333,21.56 C19.9722,22.2513333 19.3102,22.8333333 18.5582,23.2513333 C17.5008667,23.84 16.2755333,23.9933333 15.1988667,24.5526667 C12.7675333,25.8166667 12.8688667,27.426 12.8688667,27.426 C12.8688667,27.426 12.3582,27.8646667 11.9982,27.8646667 C11.9482,27.8646667 11.9002,27.8553333 11.8588667,27.8366667 C11.8588667,27.8366667 10.9882,28.504 10.4162,28.504 C10.3908667,28.504 10.3662,28.5026667 10.3422,28.4993333 C10.3422,28.4993333 9.4322,29.2586667 8.80153333,29.2586667 C8.7882,29.2586667 8.7762,29.2586667 8.76353333,29.258 C8.76353333,29.258 8.62953333,29.4193333 7.73953333,29.4193333 C7.66553333,29.4193333 7.5862,29.4173333 7.50086667,29.4153333 C7.50086667,29.4153333 7.13286667,29.49 6.7262,29.49 C6.29953333,29.49 5.8302,29.4073333 5.7002,29.0686667 C5.7002,29.0686667 8.4262,24.428 12.5788667,21.1646667 C11.2462,20.8733333 11.0688667,19.342 11.0688667,19.342 C10.2802,19.1213333 9.77486667,17.984 9.77486667,17.984 C9.1742,17.6046667 9.0482,16.878 9.0482,16.878 C7.8802,16.878 7.65886667,15.7413333 7.65886667,15.7413333 C7.2482,15.6786667 7.05886667,15.0473333 7.05886667,15.0473333 L7.3422,14.0993333 C7.32286667,14.1006667 7.30286667,14.1013333 7.28286667,14.1013333 C6.43886667,14.1013333 6.01686667,12.8046667 6.01686667,12.8046667 L6.3642,12.6786667 C5.7002,12.236 5.57486667,11.3206667 5.57486667,11.3206667 L5.7002,10.878 C3.23686667,10.0253333 3.58486667,8.95266667 3.58486667,8.95266667 L4.08953333,8.60466667 C2.7002,7.49933333 3.30086667,6.93066667 3.30086667,6.93066667 L3.9322,7.15266667 L3.11153333,6.078 C2.2582,4.97333333 2.73153333,4.75266667 2.73153333,4.75266667 L3.55353333,5.41533333 L2.92153333,4.56333333 C2.28953333,3.71 2.57286667,3.39466667 2.57286667,3.39466667 L2.73153333,3.33066667 C2.5422,2.984 2.57486667,2.51066667 2.57486667,2.51066667" id="Fill-1" fill="#AB83A4" mask="url(#mask-2)"></path>
                </g>
            </g>
        </g>
    </g>
</svg>