<?xml version="1.0" encoding="UTF-8"?>
<svg width="34px" height="30px" viewBox="0 0 34 30" version="1.1" xmlns="http://www.w3.org/2000/svg" xmlns:xlink="http://www.w3.org/1999/xlink">
    <!-- Generator: Sketch 41 (35326) - http://www.bohemiancoding.com/sketch -->
    <title>Page 1</title>
    <desc>Created with Sketch.</desc>
    <defs>
        <polygon id="path-1" points="33.4354086 29.9528887 33.4354086 0 0 0 0 29.9528887 33.4354086 29.9528887"></polygon>
    </defs>
    <g id="Page-1" stroke="none" stroke-width="1" fill="none" fill-rule="evenodd">
        <g id="Desktop-HD-Copy-2" transform="translate(-468.000000, -439.000000)">
            <g id="Group-10" transform="translate(398.000000, 439.000000)">
                <g id="Page-1" transform="translate(70.000000, 0.000000)">
                    <mask id="mask-2" fill="white">
                        <use xlink:href="#path-1"></use>
                    </mask>
                    <g id="Clip-2"></g>
                    <path d="M26.3331012,22.0407665 C24.5208444,22.0407665 23.0515447,20.5714669 23.0515447,18.7589767 C23.0515447,16.9464864 25.6372646,13.459716 25.6372646,13.459716 C26.0199105,12.9435292 26.6462918,12.9435292 27.0289377,13.459716 C27.0289377,13.459716 29.6147743,16.9464864 29.6147743,18.7589767 C29.6147743,20.5714669 28.1455914,22.0407665 26.3331012,22.0407665 M17.2098327,18.9861362 C15.3972257,18.9861362 13.9280428,17.5168366 13.9280428,15.7043463 C13.9280428,13.891856 16.5138794,10.4050856 16.5138794,10.4050856 C16.896642,9.88889883 17.5229066,9.88889883 17.9056693,10.4050856 C17.9056693,10.4050856 20.4915058,13.891856 20.4915058,15.7043463 C20.4915058,17.5168366 19.0222062,18.9861362 17.2098327,18.9861362 M7.10216732,22.0407665 C5.28979377,22.0407665 3.82049416,20.5714669 3.82049416,18.7589767 C3.82049416,16.9464864 6.40621401,13.459716 6.40621401,13.459716 C6.78897665,12.9435292 7.41535798,12.9435292 7.79812062,13.459716 C7.79812062,13.459716 10.3839572,16.9464864 10.3839572,18.7589767 C10.3839572,20.5714669 8.91465759,22.0407665 7.10216732,22.0407665 M26.4584708,6.91714786 C25.9698327,6.49994942 25.5700272,5.6328677 25.5700272,4.99049416 L25.5700272,1.16812062 C25.5700272,0.525747082 25.0442685,-1.16731517e-05 24.4017782,-1.16731517e-05 L8.95609728,-1.16731517e-05 C8.313607,-1.16731517e-05 7.78784825,0.525747082 7.78784825,1.16812062 L7.78784825,5.40220623 C7.78784825,6.0446965 7.38033852,6.90243969 6.8821284,7.30831518 C6.8821284,7.30831518 0.648548638,12.3871868 0.316097276,12.8645019 C-0.0402840467,13.3759027 -0.0907120623,14.0465253 0.141466926,14.7613891 C0.373762646,15.4762529 0.886680934,16.052323 0.886680934,16.052323 C1.31391829,16.532323 1.55216732,17.4386265 1.41605837,18.066642 C1.41605837,18.066642 0.97948249,20.0809611 1.71068872,21.2126732 C2.44189494,22.3445019 4.54084436,22.6791712 4.54084436,22.6791712 C5.17539689,22.7802607 5.7061751,23.3886654 5.72029961,24.0310389 C5.72029961,24.0310389 5.78041634,26.7559027 7.11302335,27.5936848 C8.44563035,28.4314669 11.144463,27.417537 11.144463,27.417537 C11.7458638,27.191428 12.6124786,27.3755136 13.0701829,27.8264475 C13.0701829,27.8264475 15.455358,30.1764864 17.2972646,29.9355525 C19.1391712,29.6945019 20.5238405,27.8320506 20.5238405,27.8320506 C20.9074202,27.3164475 21.7065642,27.0959416 22.300144,27.3418949 C22.300144,27.3418949 24.8619339,28.4035681 26.2259416,27.579677 C27.5899494,26.7559027 27.7753191,24.0285875 27.7753191,24.0285875 C27.8189767,23.3874981 28.3714669,22.76707 29.0032179,22.6497549 C29.0032179,22.6497549 31.2954747,22.2241518 31.9854747,21.0371089 C32.6755914,19.8501829 32.1902218,18.052751 32.1902218,18.052751 C32.0227121,17.432323 32.2543074,16.5499494 32.7047743,16.0917782 C32.7047743,16.0917782 32.8418171,15.9524008 33.1537237,15.3159805 C33.4655136,14.6793268 33.5725564,13.9183541 33.1928288,12.9589377 C33.0180817,12.5175759 26.4584708,6.91714786 26.4584708,6.91714786 Z" id="Fill-1" fill="#AB83A4" mask="url(#mask-2)"></path>
                </g>
            </g>
        </g>
    </g>
</svg>