<?xml version="1.0" encoding="UTF-8"?>
<svg width="26px" height="30px" viewBox="0 0 26 30" version="1.1" xmlns="http://www.w3.org/2000/svg" xmlns:xlink="http://www.w3.org/1999/xlink">
    <!-- Generator: Sketch 41 (35326) - http://www.bohemiancoding.com/sketch -->
    <title>Page 1</title>
    <desc>Created with Sketch.</desc>
    <defs></defs>
    <g id="Page-1" stroke="none" stroke-width="1" fill="none" fill-rule="evenodd">
        <g id="Desktop-HD-Copy-2" transform="translate(-1008.000000, -439.000000)" fill="#AB83A4">
            <g id="Group-4" transform="translate(947.000000, 439.000000)">
                <polygon id="Page-1" points="73.1381274 6.9775393e-05 73.1381274 1.80515919 71.3735077 1.80515919 71.3735077 3.42185505 73.1381274 3.42185505 73.1381274 8.21891332 66.1459352 12.8659545 66.1459352 20.6124186 66.1326779 20.6124186 61 23.1857351 61 30 66.1459352 30 71.3260604 30 71.3260604 24.3698235 76.4322237 24.3698235 76.4322237 30 81.6123488 30 86.7589818 30 86.7589818 23.1857351 81.6123488 20.6124186 81.6123488 12.8659545 74.7548232 8.30822582 74.7548232 3.42185505 76.5201407 3.42185505 76.5201407 1.80515919 74.7548232 1.80515919 74.7548232 6.9775393e-05"></polygon>
            </g>
        </g>
    </g>
</svg>