<?xml version="1.0" encoding="UTF-8"?>
<svg width="22px" height="30px" viewBox="0 0 22 30" version="1.1" xmlns="http://www.w3.org/2000/svg" xmlns:xlink="http://www.w3.org/1999/xlink">
    <!-- Generator: Sketch 41 (35326) - http://www.bohemiancoding.com/sketch -->
    <title>Page 1</title>
    <desc>Created with Sketch.</desc>
    <defs></defs>
    <g id="Page-1" stroke="none" stroke-width="1" fill="none" fill-rule="evenodd">
        <g id="Desktop-HD-Copy-2" transform="translate(-846.000000, -440.000000)" fill="#AB83A4">
            <g id="Group-3" transform="translate(753.000000, 440.000000)">
                <g id="Page-1" transform="translate(93.000000, 0.000000)">
                    <path d="M21.452625,0.0001875 L19.5295,0.3258125 L19.137625,0.3920625 L16.822625,0.7833125 L3.140125,3.0976875 L3.1345,3.0995625 L2.44825,3.2176875 L1.62075,3.3608125 L0.975125,3.4708125 L0.107,3.6208125 L0.067625,3.6139375 L0.000125,3.6026875 L0.000125,3.6389375 L0.000125,3.8058125 L0.000125,3.8414375 L0.000125,4.6558125 L0.000125,5.4876875 L0.000125,6.5226875 L0.000125,6.5714375 L0.000125,7.5801875 L0.000125,22.4208125 L0.000125,23.4289375 L0.000125,23.4776875 L0.000125,24.5126875 L0.000125,25.3445625 L0.000125,26.1589375 L0.000125,26.1951875 L0.000125,26.3614375 L0.000125,26.3983125 L0.067625,26.3864375 L0.107,26.3795625 L0.975125,26.5295625 L1.62075,26.6408125 L2.44825,26.7839375 L3.1345,26.9014375 L3.140125,26.9020625 L16.822625,29.2170625 L19.137625,29.6083125 L19.5295,29.6751875 L21.452625,30.0001875 L21.452625,7.4251875 L19.098875,7.0283125 L17.850125,6.8176875 L10.2595,5.5364375 L6.542,4.9095625 L19.098875,2.7845625 L19.098875,7.0283125 L21.452625,7.4251875 L21.452625,0.0001875 Z M2.352625,24.3789375 L2.352625,6.5883125 L19.098875,9.4145625 L19.098875,27.2158125 L2.352625,24.3789375 Z" id="Fill-1"></path>
                    <polygon id="Fill-2" points="9.5495625 22.5003125 11.9033125 22.5003125 11.9033125 16.1765625 14.5783125 16.1765625 14.5783125 13.8240625 11.9033125 13.8240625 11.9033125 11.2503125 9.5495625 11.2503125 9.5495625 13.8240625 6.8745625 13.8240625 6.8745625 16.1765625 9.5495625 16.1765625"></polygon>
                </g>
            </g>
        </g>
    </g>
</svg>